<?xml version="1.0" encoding="UTF-8" standalone="no"?>
<svg
   id="Layer_1"
   viewBox="0 0 167.14501 38.400003"
   version="1.1"
   width="167.14502"
   height="38.400002"
   xmlns="http://www.w3.org/2000/svg"
   xmlns:svg="http://www.w3.org/2000/svg">
  <defs
     id="defs7" />
  <style
     id="style1">.st0{fill:#FFFFFF;} .st1{fill:#003A70;} .st2{fill:#24B9EC;}</style>
  <g
     id="g110"
     transform="translate(-55.25532,14)">
    <path
       id="path90"
       style="display:inline;fill:#ffffff"
       d="m 107.6,14.8 c -0.1,0.3 -0.1,0.7 -0.2,1.2 -1,0.7 -2.3,1 -3.5,1 -3.3,0 -5.2,-2.3 -5.2,-5.4 0,-2.9 1.7,-5.3 5.4,-5.3 1.7,0 2.9,0.5 3.5,0.8 -0.2,0.6 -0.3,0.8 -0.3,1.5 h -0.1 c -0.4,-0.9 -1.6,-1.7 -3.1,-1.7 -2.2,0 -3.7,1.7 -3.7,4.7 0,3.1 1.8,4.7 3.8,4.7 0.6,0 2.1,-0.1 3.2,-1.5 z m 2.3,-1.6 c 0,2.1 0.9,3.3 2.2,3.3 1.4,0 2.2,-1.2 2.2,-3.2 0,-1.2 -0.3,-3.2 -2.2,-3.2 -2.2,-0.1 -2.2,2.6 -2.2,3.1 m 5.9,0 c 0,2.4 -1.6,3.9 -3.7,3.9 -1.5,0 -3.6,-0.7 -3.6,-3.8 0,-2.3 1.5,-3.8 3.6,-3.8 2.7,-0.1 3.7,1.8 3.7,3.7 m 3.2,-2.1 c -0.4,0.6 -0.4,1.2 -0.4,2.8 0,0.8 0,1.8 0.1,3 -0.3,-0.1 -0.5,-0.1 -0.7,-0.1 -0.2,0 -0.4,0 -0.7,0.1 0.1,-2.2 0.1,-2.5 0.1,-3.5 0,-1.1 0,-1.4 -0.1,-3.9 0.2,0 0.4,0.1 0.7,0.1 0.3,0 0.5,-0.1 0.7,-0.1 0,0.2 -0.1,0.7 -0.1,1.3 0.6,-1.1 1.5,-1.4 2.2,-1.4 1,0 1.7,0.4 2.1,1.4 0.6,-1 1.5,-1.4 2.3,-1.4 0.4,0 1.3,0.1 1.8,0.8 0.4,0.5 0.4,1.1 0.4,1.5 v 2.5 c 0,0.9 0,1.7 0.1,2.6 -0.3,-0.1 -0.5,-0.1 -0.7,-0.1 -0.3,0 -0.5,0 -0.7,0.1 0.1,-1.5 0.1,-2.2 0.1,-3.2 0,-2 -0.1,-2.2 -0.3,-2.6 -0.3,-0.5 -0.8,-0.6 -1.2,-0.6 -1.6,0 -1.7,1.8 -1.7,2.8 0,1.1 0.1,2.6 0.1,3.7 -0.2,-0.1 -0.4,-0.1 -0.8,-0.1 -0.4,0 -0.5,0 -0.7,0.1 0.1,-1 0.1,-2.2 0.1,-3.2 0,-0.6 0,-2 -0.2,-2.5 -0.3,-0.6 -0.8,-0.7 -1.3,-0.7 -0.4,-0.2 -0.8,0 -1.2,0.6 m 12.1,0 c -0.4,0.6 -0.4,1.2 -0.4,2.8 0,0.8 0,1.8 0.1,3 -0.3,-0.1 -0.5,-0.1 -0.7,-0.1 -0.2,0 -0.4,0 -0.7,0.1 0.1,-2.2 0.1,-2.5 0.1,-3.5 0,-1.1 0,-1.4 -0.1,-3.9 0.2,0 0.4,0.1 0.7,0.1 0.3,0 0.5,-0.1 0.7,-0.1 0,0.2 -0.1,0.7 -0.1,1.3 0.6,-1.1 1.5,-1.4 2.2,-1.4 1,0 1.7,0.4 2.1,1.4 0.6,-1 1.5,-1.4 2.3,-1.4 0.4,0 1.3,0.1 1.8,0.8 0.4,0.5 0.4,1.1 0.4,1.5 v 2.5 c 0,0.9 0,1.7 0.1,2.6 -0.3,-0.1 -0.5,-0.1 -0.8,-0.1 -0.3,0 -0.5,0 -0.7,0.1 0.1,-1.5 0.1,-2.2 0.1,-3.2 0,-2 -0.1,-2.2 -0.3,-2.6 -0.3,-0.5 -0.8,-0.6 -1.2,-0.6 -1.6,0 -1.7,1.8 -1.7,2.8 0,1.1 0.1,2.6 0.1,3.7 -0.2,-0.1 -0.4,-0.1 -0.8,-0.1 -0.4,0 -0.5,0 -0.7,0.1 0.1,-1 0.1,-2.2 0.1,-3.2 0,-0.6 0,-2 -0.2,-2.5 -0.3,-0.6 -0.8,-0.7 -1.3,-0.7 -0.3,-0.2 -0.7,0 -1.1,0.6 m 14.7,3.9 c 0.3,-0.5 0.3,-1.2 0.3,-1.6 0,-1 0,-3 -0.1,-3.9 0.2,0 0.5,0.1 0.8,0.1 0.3,0 0.5,0 0.7,-0.1 -0.1,0.9 -0.1,2.3 -0.1,3.8 0,2.2 0,2.7 0.1,3.5 -0.2,0 -0.4,-0.1 -0.7,-0.1 -0.3,0 -0.4,0 -0.7,0.1 0,-0.4 0,-0.5 0.1,-1.4 -0.7,1.4 -1.8,1.6 -2.3,1.6 -2.2,0 -2.4,-1.8 -2.4,-2.6 0,-0.5 0.1,-2.7 0.1,-3.2 0,-0.6 0,-1.3 -0.1,-1.7 0.2,0.1 0.4,0.1 0.7,0.1 0.3,0 0.5,0 0.7,-0.1 -0.1,1.1 -0.1,2.4 -0.1,3.2 0,1.8 0,3.4 1.5,3.4 0.8,-0.1 1.3,-0.6 1.5,-1.1 m 3.6,-5.5 c 0.3,0 0.4,0.1 0.7,0.1 0.3,0 0.5,0 0.7,-0.1 0,0.2 -0.1,1.2 -0.1,1.4 0.4,-0.7 1.1,-1.5 2.5,-1.5 2.3,0 2.4,1.8 2.4,2.6 0,0.1 -0.1,2.7 -0.1,3.2 v 1.6 c -0.2,-0.1 -0.4,-0.1 -0.7,-0.1 -0.4,0 -0.5,0 -0.7,0.1 0.1,-1.6 0.1,-3.3 0.1,-3.5 0,-1.5 -0.1,-2.9 -1.6,-2.9 -0.7,0 -1.3,0.4 -1.7,1 -0.3,0.5 -0.3,2.2 -0.3,2.9 0,1.2 0.1,1.9 0.1,2.5 -0.2,0 -0.4,-0.1 -0.8,-0.1 -0.3,0 -0.5,0 -0.8,0.1 0.1,-0.9 0.1,-1.9 0.1,-4.1 0.3,-1 0.2,-2.1 0.2,-3.2 m 8.2,0.1 c 0.2,0.1 0.4,0.1 0.7,0.1 0.3,0 0.5,0 0.7,-0.1 0,0.8 -0.1,1.5 -0.1,4 0,0.7 0,0.9 0.1,3.3 -0.2,-0.1 -0.3,-0.1 -0.7,-0.1 -0.4,0 -0.5,0 -0.7,0.1 0.1,-1.1 0.1,-2.7 0.1,-3.8 0,-1.8 -0.1,-2.8 -0.1,-3.5 m 0.7,-1.7 c -0.4,0 -0.8,-0.4 -0.8,-0.8 0,-0.5 0.4,-0.8 0.8,-0.8 0.4,0 0.8,0.4 0.8,0.8 0,0.4 -0.4,0.8 -0.8,0.8 m 3.1,2.5 c -0.5,0 -0.5,0 -1.1,0.1 V 10.1 9.7 h 1.2 V 8 c 0.4,-0.1 1.2,-0.5 1.4,-0.7 -0.1,1.3 -0.1,1.4 -0.1,2.4 0.5,0 1,0 1.5,-0.1 v 0.8 h -1.5 c -0.1,1.4 -0.1,2.8 -0.1,4.1 0,1.2 0.2,1.9 1,1.9 0.1,0 0.5,-0.1 0.6,-0.1 v 0.4 c -0.3,0.2 -0.9,0.3 -1.2,0.3 -0.8,0 -1.3,-0.5 -1.5,-0.9 -0.1,-0.2 -0.2,-0.5 -0.2,-1.4 z m 5.7,5.2 c -0.4,-1.1 -1.1,-2.8 -1.5,-3.8 -0.4,-1.1 -0.5,-1.3 -0.9,-2.2 0.2,0.1 0.5,0.1 0.9,0.1 0.3,0 0.5,0 0.8,-0.1 0.1,0.4 1,3.1 1.8,5 0.1,0.3 0.2,0.5 0.3,0.5 0.2,0 1.3,-3.1 2,-5.5 0.2,0 0.4,0.1 0.6,0.1 0.3,0 0.5,0 0.6,-0.1 -0.3,0.4 -0.4,0.7 -1.5,3.3 -0.2,0.4 -0.3,0.7 -0.5,1.1 -1,2.2 -2,4.6 -2.6,6.8 -0.1,0 -0.3,-0.1 -0.5,-0.1 -0.2,0 -0.4,0 -0.6,0.1 0.6,-1.2 1.2,-2.4 1.8,-3.7 z m 16.7,-0.8 c -0.1,0.3 -0.1,0.7 -0.2,1.2 -1,0.7 -2.3,1 -3.5,1 -3.3,0 -5.2,-2.3 -5.2,-5.4 0,-2.9 1.7,-5.3 5.4,-5.3 1.7,0 2.9,0.5 3.5,0.8 -0.2,0.6 -0.3,0.8 -0.3,1.5 h -0.1 C 183,7.8 181.7,7 180.3,7 c -2.2,0 -3.7,1.7 -3.7,4.7 0,3.1 1.8,4.7 3.8,4.7 0.6,0 2.1,-0.2 3.2,-1.6 z m 2.3,-1.6 c 0,2.1 0.9,3.2 2.2,3.2 1.4,0 2.3,-1.2 2.3,-3.2 0,-1.2 -0.3,-3.2 -2.2,-3.2 -2.3,0 -2.3,2.7 -2.3,3.2 m 5.8,0 c 0,2.4 -1.6,3.9 -3.7,3.9 -1.5,0 -3.6,-0.7 -3.6,-3.8 0,-2.3 1.5,-3.8 3.6,-3.8 2.7,-0.1 3.7,1.8 3.7,3.7 m 1.5,-7.5 c 0.2,0 0.5,0.1 0.7,0.1 0.3,0 0.5,0 0.7,-0.1 -0.1,2.2 -0.1,3 -0.1,5.6 0,2.4 0,3.4 0.1,5.5 -0.2,-0.1 -0.4,-0.1 -0.8,-0.1 -0.4,0 -0.5,0 -0.7,0.1 0.1,-1.5 0.1,-1.9 0.1,-5.8 0.1,-3.4 0.1,-3.8 0,-5.3 m 4.4,0 c 0.2,0 0.5,0.1 0.7,0.1 0.3,0 0.5,0 0.8,-0.1 -0.1,2.2 -0.1,3 -0.1,5.6 0,2.4 0,3.4 0.1,5.5 -0.2,-0.1 -0.4,-0.1 -0.8,-0.1 -0.4,0 -0.5,0 -0.7,0.1 0.1,-1.5 0.1,-1.9 0.1,-5.8 -0.1,-3.4 -0.1,-3.8 -0.1,-5.3 m 8,6.9 c 0,-0.5 0,-2.5 -1.7,-2.5 -1.2,0 -1.8,1 -2,2.5 z m -3.6,0.6 c 0,0.4 0,1.3 0.4,2 0.7,1.1 1.6,1.2 2,1.2 1.4,0 2,-0.9 2.3,-1.2 h 0.2 c -0.1,0.4 -0.1,0.7 -0.1,0.9 -0.6,0.6 -1.5,1 -2.6,1 -2.2,0 -3.5,-1.4 -3.5,-3.8 0,-2.1 1.1,-3.8 3.4,-3.8 3.2,0 3.1,2.9 3.1,3.7 z M 213,11.7 c 0,-1.3 -0.8,-1.8 -1.5,-1.8 -1.4,0 -1.5,1.4 -1.5,2 0,1.3 0.7,1.8 1.5,1.8 1.2,0 1.5,-1.1 1.5,-2 m 0.9,6.7 c 0,-1.4 -1.4,-1.6 -2.3,-1.6 -0.3,0 -2.2,0 -2.2,1.7 0,1.1 0.9,1.8 2.2,1.8 1.5,0 2.3,-0.9 2.3,-1.9 m -2.5,-9 c 0.3,0 0.6,0 1,0.1 0.7,0.1 0.9,0.2 1.5,0.2 0.4,0 0.6,0 1.3,-0.1 v 0.8 h -1.3 c 0.3,0.3 0.6,0.8 0.6,1.4 0,1.6 -1.2,2.5 -2.8,2.5 -0.2,0 -1,-0.1 -1,-0.1 -0.4,0 -0.6,0.4 -0.6,0.7 0,0.4 0.1,0.8 1.7,0.8 h 1 c 1.2,0 1.6,0.3 1.9,0.6 0.4,0.3 0.6,0.8 0.6,1.4 0,1.1 -0.8,3.2 -3.7,3.2 -2.3,0 -3,-1.2 -3,-2.2 0,-1.4 1.3,-1.9 1.6,-2 -0.9,-0.3 -1,-0.8 -1,-1.3 0,-1 0.9,-1.4 1.1,-1.5 -1,-0.4 -1.4,-1.2 -1.4,-2.1 -0.3,-1.5 1,-2.4 2.5,-2.4 m 9.5,3.2 c 0,-0.5 0,-2.5 -1.7,-2.5 -1.2,0 -1.8,1 -2,2.5 z m -3.7,0.6 c 0,0.4 0,1.3 0.4,2 0.6,1.1 1.6,1.2 2,1.2 1.4,0 2,-0.9 2.3,-1.2 h 0.2 c -0.1,0.4 -0.1,0.7 -0.1,0.9 -0.6,0.6 -1.5,1 -2.6,1 -2.1,0 -3.5,-1.4 -3.5,-3.8 0,-2.1 1.1,-3.8 3.4,-3.8 3.2,0 3.1,2.9 3.1,3.7 z M 103.9,-5.8030822 c -0.2,-0.6 -0.7,-1.4 -2,-1.4 -1.5,0 -1.8,1.2 -1.8,1.7 0,1.2 0.9,1.6 1.7,1.9 1.5,0.6 1.8,0.7 2.3,1.2 0.6,0.6 0.8,1.4 0.8,1.90000004 0,1.59999996 -1,3.39999996 -3.6,3.39999996 -0.9,0 -1.8,-0.2 -2.6,-0.8 0.2,-0.8 0.2,-1.19999996 0.3,-1.39999996 h 0.2 c 0.4,0.89999996 1.2,1.59999996 2.4,1.59999996 1.5,0 2.1,-1 2.1,-1.99999996 0,-1.2 -0.8,-1.70000004 -1.8,-2.10000004 -1.7,-0.7 -1.8,-0.8 -2.2,-1.2 -0.5,-0.4 -0.7,-1.2 -0.7,-1.9 0,-1.9 1.5,-2.9 3.1,-2.9 1.1,0 2.1,0.4 2.4,0.7 -0.1,0.2 -0.4,0.8 -0.4,1.3 z m 2.6,2.1 c -0.5,0 -0.5,0 -1.1,0.1 v -0.4 -0.4 h 1.2 v -1.7 c 0.4,-0.1 1.2,-0.5 1.4,-0.7 -0.1,1.3 -0.1,1.4 -0.1,2.4 0.5,0 1,0 1.5,-0.1 v 0.8 h -1.5 c -0.1,1.4 -0.1,2.80000004 -0.1,4.10000004 0,1.19999996 0.2,1.89999996 1,1.89999996 0.1,0 0.5,-0.1 0.7,-0.1 v 0.4 c -0.5,0.2 -1,0.3 -1.3,0.3 -0.8,0 -1.3,-0.5 -1.5,-0.9 -0.1,-0.2 -0.2,-0.5 -0.2,-1.39999996 z m 5,6.6 c -0.4,0 -0.8,-0.4 -0.8,-0.8 0,-0.5 0.4,-0.8 0.8,-0.8 0.4,0 0.8,0.4 0.8,0.8 0,0.4 -0.4,0.8 -0.8,0.8 m 8.6,-1 c 0.7,0 1.9,-0.1 2.6,-0.2 0,0.1 -0.1,0.3 -0.1,0.5 0,0.2 0,0.4 0.1,0.5 -0.9,0 -1.5,-0.1 -3.1,-0.1 -1.2,0 -1.6,0 -2.4,0.1 0.1,-1.89999996 0.1,-3.49999996 0.1,-5.5 0,-2 -0.1,-4.3 -0.1,-4.9 0.2,0 0.4,0.1 0.8,0.1 0.4,0 0.6,0 0.9,-0.1 -0.1,3.9 -0.1,4.9 -0.1,9.6 h 1.3 m 4.6,-2.79999996 c 0,2.09999996 0.9,3.29999996 2.2,3.29999996 1.4,0 2.2,-1.2 2.2,-3.19999996 0,-1.20000004 -0.3,-3.20000004 -2.2,-3.20000004 -2.2,-0.1 -2.2,2.6 -2.2,3.10000004 m 5.9,0 c 0,2.39999996 -1.6,3.89999996 -3.7,3.89999996 -1.5,0 -3.6,-0.7 -3.6,-3.79999996 0,-2.30000004 1.5,-3.80000004 3.6,-3.80000004 2.6,-0.1 3.7,1.8 3.7,3.70000004 m 5.9,1.8 c 0.3,-0.5 0.3,-1.2 0.3,-1.6 0,-1.00000004 0,-3.00000004 -0.1,-3.90000004 0.2,0 0.5,0.1 0.8,0.1 0.3,0 0.5,0 0.7,-0.1 -0.1,0.9 -0.1,2.3 -0.1,3.80000004 0,2.19999996 0,2.69999996 0.1,3.49999996 -0.2,0 -0.4,-0.1 -0.7,-0.1 -0.3,0 -0.4,0 -0.7,0.1 0,-0.4 0,-0.5 0.1,-1.4 -0.8,1.4 -1.9,1.6 -2.4,1.6 -2.2,0 -2.4,-1.8 -2.4,-2.59999996 0,-0.5 0.1,-2.70000004 0.1,-3.20000004 0,-0.6 0,-1.3 -0.1,-1.7 0.2,0.1 0.4,0.1 0.7,0.1 0.3,0 0.5,0 0.7,-0.1 -0.1,1.1 -0.1,2.4 -0.1,3.2 0,1.80000004 0,3.4 1.5,3.4 0.9,-0.1 1.4,-0.6 1.6,-1.09999996 m 3.6,-5.40000004 c 0.2,0.1 0.4,0.1 0.7,0.1 0.3,0 0.5,0 0.7,-0.1 0,0.8 -0.1,1.5 -0.1,4.00000004 0,0.7 0,0.9 0.1,3.29999996 -0.2,-0.1 -0.3,-0.1 -0.7,-0.1 -0.4,0 -0.5,0 -0.7,0.1 0.1,-1.1 0.1,-2.69999996 0.1,-3.8 0,-1.8 0,-2.8 -0.1,-3.5 m 0.8,-1.7 c -0.4,0 -0.8,-0.4 -0.8,-0.8 0,-0.5 0.4,-0.8 0.8,-0.8 0.4,0 0.8,0.4 0.8,0.8 -0.1,0.4 -0.4,0.8 -0.8,0.8 m 6.3,3.3 c -0.1,-0.2 -0.1,-0.6 -0.6,-0.9 -0.3,-0.2 -0.7,-0.3 -0.9,-0.3 -0.9,0 -1.3,0.5 -1.3,1.1 0,0.9 0.8,1.2 1.3,1.3 1.3,0.3 2.3,0.6 2.3,2.10000004 0,1.09999996 -0.7,2.39999996 -2.7,2.39999996 -1.1,0 -1.9,-0.5 -2.1,-0.6 0.2,-0.4 0.3,-1 0.3,-1.19999996 h 0.2 c 0.1,0.29999996 0.2,0.69999996 0.8,0.99999996 0.4,0.2 0.7,0.3 1,0.3 0.7,0 1.4,-0.4 1.4,-1.2 0,-0.89999996 -0.5,-0.99999996 -2,-1.49999996 -0.6,-0.2 -1.6,-0.70000004 -1.6,-2.00000004 0,-0.9 0.5,-2.2 2.4,-2.2 1,0 1.5,0.3 1.9,0.5 -0.1,0.4 -0.2,0.8 -0.3,1.3 h -0.1 z M 85.854929,6.199219 c -0.443749,0 -0.859229,0.04761 -1.246093,0.134765 -0.386865,0.08716 -0.743946,0.214258 -1.074219,0.376953 -0.330273,0.162696 -0.632276,0.36128 -0.90625,0.587891 -0.273974,0.226611 -0.520313,0.48086 -0.738281,0.759766 -0.217969,0.278906 -0.408057,0.582764 -0.570313,0.902343 -0.162256,0.31958 -0.297461,0.655274 -0.404297,1.003907 -0.106836,0.348632 -0.186572,0.710108 -0.238281,1.076172 -0.05171,0.366064 -0.07539,0.7375 -0.07227,1.109375 0.0031,0.371874 0.03413,0.743311 0.0918,1.109375 0.05767,0.366064 0.141993,0.725586 0.253906,1.074218 0.111914,0.348633 0.2521,0.68628 0.417969,1.00586 0.165869,0.31958 0.358594,0.621484 0.578125,0.90039 0.219531,0.278906 0.465381,0.535108 0.738281,0.761719 0.272901,0.226611 0.572462,0.423242 0.898438,0.585938 0.325976,0.162695 0.677881,0.291748 1.056641,0.378906 0.378759,0.08716 0.783594,0.132812 1.214843,0.132812 H 93.5561 v -2.298828 h -7.101562 c -0.3,0.0062 -0.580494,-0.01648 -0.84375,-0.06445 -0.263257,-0.04797 -0.507911,-0.121777 -0.734375,-0.216797 -0.226465,-0.09502 -0.435376,-0.212768 -0.625,-0.347656 -0.189624,-0.134888 -0.360938,-0.2875 -0.513672,-0.455078 -0.152734,-0.167578 -0.286548,-0.349878 -0.402344,-0.542969 -0.115796,-0.193091 -0.212207,-0.395996 -0.291016,-0.607422 -0.07881,-0.211425 -0.139868,-0.431714 -0.18164,-0.654297 -0.04177,-0.222582 -0.06563,-0.447265 -0.07031,-0.673828 -0.0047,-0.226562 0.01052,-0.45437 0.04297,-0.677734 0.03245,-0.223364 0.08272,-0.443262 0.152344,-0.65625 0.06963,-0.212988 0.156812,-0.417847 0.263672,-0.613281 0.10686,-0.195435 0.232812,-0.382032 0.376953,-0.552735 0.14414,-0.170703 0.306812,-0.32605 0.488281,-0.464844 0.18147,-0.138793 0.382715,-0.259668 0.601563,-0.359375 0.218847,-0.09971 0.456616,-0.178979 0.71289,-0.232421 0.256274,-0.05344 0.530469,-0.08203 0.824219,-0.08203 h 7.300781 V 6.199224 Z M 93.55532,-1.1 V -14 h -38.3 v 13.2 h 5.1 c 5.3,0 8.9,-9.4 17.3,-9.4 h 7.4 v 9.1 h 8.5 m 0,14.4 h -7.2 c -1.4,0 -1.5,-2.4 0.1,-2.4 h 7.1 z M 55.25532,4 V 1.6 h 5.2 c 7.1,0 10.2,-9.6 17.1,-9.4 h 5.1 v 9.2 h 10.9 v 2.4 h -13.3 v -9.2 h -2.4 c -6.5,-0.1 -8.1,9.3 -18,9.4 h -4.6 m 0,2.4 h 4.6 c 10.5,0 12.7,-9.2 17.8,-9.3 h 0.1 v 9.1 h 2.6 c -4.6,4.6 -2.3,14.3 5.5,14.4 h 7.7 v 3.8 h -38.3 z" />
  </g>
</svg>
