<svg id="Layer_1" xmlns="http://www.w3.org/2000/svg" viewBox="0 0 225.1 38.3"><style>.st0{fill:#FFFFFF;} .st1{fill:#003A70;} .st2{fill:#24B9EC;}</style><path class="st0" d="M0 20.4h4.6c10.5 0 12.7-9.2 17.8-9.3h.1v9.1h2.6c-4.6 4.6-2.3 14.3 5.5 14.4h7.7v3.8H0v-18z"/><path class="st0" d="M0 18v-2.4h5.2c7.1 0 10.2-9.6 17.1-9.4h5.1v9.2h10.9v2.4H25V8.6h-2.4c-6.5-.1-8.1 9.3-18 9.4H0"/><path class="st0" d="M38.3 12.9V0H0v13.2h5.1c5.3 0 8.9-9.4 17.3-9.4h7.4v9.1h8.5M38.3 27.3h-7.2c-1.4 0-1.5-2.4.1-2.4h7.1v2.4z"/><path class="st0" d="M38.3 32.1h-7.7c-6.9 0-7.1-11.9 0-11.9h7.7v2.4H31c-4.7 0-4.6 7.3.2 7.2h7.1v2.3zM107.6 14.8c-.1.3-.1.7-.2 1.2-1 .7-2.3 1-3.5 1-3.3 0-5.2-2.3-5.2-5.4 0-2.9 1.7-5.3 5.4-5.3 1.7 0 2.9.5 3.5.8-.2.6-.3.8-.3 1.5h-.1c-.4-.9-1.6-1.7-3.1-1.7-2.2 0-3.7 1.7-3.7 4.7 0 3.1 1.8 4.7 3.8 4.7.6 0 2.1-.1 3.2-1.5h.2zM109.9 13.2c0 2.1.9 3.3 2.2 3.3 1.4 0 2.2-1.2 2.2-3.2 0-1.2-.3-3.2-2.2-3.2-2.2-.1-2.2 2.6-2.2 3.1m5.9 0c0 2.4-1.6 3.9-3.7 3.9-1.5 0-3.6-.7-3.6-3.8 0-2.3 1.5-3.8 3.6-3.8 2.7-.1 3.7 1.8 3.7 3.7M119 11.1c-.4.6-.4 1.2-.4 2.8 0 .8 0 1.8.1 3-.3-.1-.5-.1-.7-.1-.2 0-.4 0-.7.1.1-2.2.1-2.5.1-3.5 0-1.1 0-1.4-.1-3.9.2 0 .4.1.7.1.3 0 .5-.1.7-.1 0 .2-.1.7-.1 1.3.6-1.1 1.5-1.4 2.2-1.4 1 0 1.7.4 2.1 1.4.6-1 1.5-1.4 2.3-1.4.4 0 1.3.1 1.8.8.4.5.4 1.1.4 1.5v2.5c0 .9 0 1.7.1 2.6-.3-.1-.5-.1-.7-.1-.3 0-.5 0-.7.1.1-1.5.1-2.2.1-3.2 0-2-.1-2.2-.3-2.6-.3-.5-.8-.6-1.2-.6-1.6 0-1.7 1.8-1.7 2.8 0 1.1.1 2.6.1 3.7-.2-.1-.4-.1-.8-.1s-.5 0-.7.1c.1-1 .1-2.2.1-3.2 0-.6 0-2-.2-2.5-.3-.6-.8-.7-1.3-.7-.4-.2-.8 0-1.2.6M131.1 11.1c-.4.6-.4 1.2-.4 2.8 0 .8 0 1.8.1 3-.3-.1-.5-.1-.7-.1-.2 0-.4 0-.7.1.1-2.2.1-2.5.1-3.5 0-1.1 0-1.4-.1-3.9.2 0 .4.1.7.1.3 0 .5-.1.7-.1 0 .2-.1.7-.1 1.3.6-1.1 1.5-1.4 2.2-1.4 1 0 1.7.4 2.1 1.4.6-1 1.5-1.4 2.3-1.4.4 0 1.3.1 1.8.8.4.5.4 1.1.4 1.5v2.5c0 .9 0 1.7.1 2.6-.3-.1-.5-.1-.8-.1-.3 0-.5 0-.7.1.1-1.5.1-2.2.1-3.2 0-2-.1-2.2-.3-2.6-.3-.5-.8-.6-1.2-.6-1.6 0-1.7 1.8-1.7 2.8 0 1.1.1 2.6.1 3.7-.2-.1-.4-.1-.8-.1s-.5 0-.7.1c.1-1 .1-2.2.1-3.2 0-.6 0-2-.2-2.5-.3-.6-.8-.7-1.3-.7-.3-.2-.7 0-1.1.6M145.8 15c.3-.5.3-1.2.3-1.6 0-1 0-3-.1-3.9.2 0 .5.1.8.1.3 0 .5 0 .7-.1-.1.9-.1 2.3-.1 3.8 0 2.2 0 2.7.1 3.5-.2 0-.4-.1-.7-.1-.3 0-.4 0-.7.1 0-.4 0-.5.1-1.4-.7 1.4-1.8 1.6-2.3 1.6-2.2 0-2.4-1.8-2.4-2.6 0-.5.1-2.7.1-3.2 0-.6 0-1.3-.1-1.7.2.1.4.1.7.1.3 0 .5 0 .7-.1-.1 1.1-.1 2.4-.1 3.2 0 1.8 0 3.4 1.5 3.4.8-.1 1.3-.6 1.5-1.1M149.4 9.5c.3 0 .4.1.7.1.3 0 .5 0 .7-.1 0 .2-.1 1.2-.1 1.4.4-.7 1.1-1.5 2.5-1.5 2.3 0 2.4 1.8 2.4 2.6 0 .1-.1 2.7-.1 3.2v1.6c-.2-.1-.4-.1-.7-.1-.4 0-.5 0-.7.1.1-1.6.1-3.3.1-3.5 0-1.5-.1-2.9-1.6-2.9-.7 0-1.3.4-1.7 1-.3.5-.3 2.2-.3 2.9 0 1.2.1 1.9.1 2.5-.2 0-.4-.1-.8-.1-.3 0-.5 0-.8.1.1-.9.1-1.9.1-4.1.3-1 .2-2.1.2-3.2M157.6 9.6c.2.1.4.1.7.1.3 0 .5 0 .7-.1 0 .8-.1 1.5-.1 4 0 .7 0 .9.1 3.3-.2-.1-.3-.1-.7-.1-.4 0-.5 0-.7.1.1-1.1.1-2.7.1-3.8 0-1.8-.1-2.8-.1-3.5m.7-1.7c-.4 0-.8-.4-.8-.8 0-.5.4-.8.8-.8s.8.4.8.8-.4.8-.8.8M161.4 10.4c-.5 0-.5 0-1.1.1v-.4-.4h1.2V8c.4-.1 1.2-.5 1.4-.7-.1 1.3-.1 1.4-.1 2.4.5 0 1 0 1.5-.1v.8h-1.5c-.1 1.4-.1 2.8-.1 4.1 0 1.2.2 1.9 1 1.9.1 0 .5-.1.6-.1v.4c-.3.2-.9.3-1.2.3-.8 0-1.3-.5-1.5-.9-.1-.2-.2-.5-.2-1.4v-4.3zM167.1 15.6c-.4-1.1-1.1-2.8-1.5-3.8-.4-1.1-.5-1.3-.9-2.2.2.1.5.1.9.1.3 0 .5 0 .8-.1.1.4 1 3.1 1.8 5 .1.3.2.5.3.5.2 0 1.3-3.1 2-5.5.2 0 .4.1.6.1.3 0 .5 0 .6-.1-.3.4-.4.7-1.5 3.3-.2.4-.3.7-.5 1.1-1 2.2-2 4.6-2.6 6.8-.1 0-.3-.1-.5-.1s-.4 0-.6.1c.6-1.2 1.2-2.4 1.8-3.7l-.7-1.5zM50.4 8.3c-.2-.6-.7-1.4-2-1.4-1.5 0-1.8 1.2-1.8 1.7 0 1.2.9 1.6 1.7 1.9 1.5.6 1.8.7 2.3 1.2.6.6.8 1.4.8 1.9 0 1.6-1 3.4-3.6 3.4-.9 0-1.8-.2-2.6-.8.2-.8.2-1.2.3-1.4h.2c.4.9 1.2 1.6 2.4 1.6 1.5 0 2.1-1 2.1-2 0-1.2-.8-1.7-1.8-2.1-1.7-.7-1.8-.8-2.2-1.2-.5-.4-.7-1.2-.7-1.9 0-1.9 1.5-2.9 3.1-2.9 1.1 0 2.1.4 2.4.7-.1.2-.4.8-.4 1.3h-.2zM53 10.4c-.5 0-.5 0-1.1.1v-.4-.4h1.2V8c.4-.1 1.2-.5 1.4-.7-.1 1.3-.1 1.4-.1 2.4.5 0 1 0 1.5-.1v.8h-1.5c-.1 1.4-.1 2.8-.1 4.1 0 1.2.2 1.9 1 1.9.1 0 .5-.1.7-.1v.4c-.5.2-1 .3-1.3.3-.8 0-1.3-.5-1.5-.9-.1-.2-.2-.5-.2-1.4v-4.3zM66.6 16c.7 0 1.9-.1 2.6-.2 0 .1-.1.3-.1.5s0 .4.1.5c-.9 0-1.5-.1-3.1-.1-1.2 0-1.6 0-2.4.1.1-1.9.1-3.5.1-5.5s-.1-4.3-.1-4.9c.2 0 .4.1.8.1s.6 0 .9-.1c-.1 3.9-.1 4.9-.1 9.6h1.3M71.2 13.2c0 2.1.9 3.3 2.2 3.3 1.4 0 2.2-1.2 2.2-3.2 0-1.2-.3-3.2-2.2-3.2-2.2-.1-2.2 2.6-2.2 3.1m5.9 0c0 2.4-1.6 3.9-3.7 3.9-1.5 0-3.6-.7-3.6-3.8 0-2.3 1.5-3.8 3.6-3.8 2.6-.1 3.7 1.8 3.7 3.7M83 15c.3-.5.3-1.2.3-1.6 0-1 0-3-.1-3.9.2 0 .5.1.8.1.3 0 .5 0 .7-.1-.1.9-.1 2.3-.1 3.8 0 2.2 0 2.7.1 3.5-.2 0-.4-.1-.7-.1-.3 0-.4 0-.7.1 0-.4 0-.5.1-1.4-.8 1.4-1.9 1.6-2.4 1.6-2.2 0-2.4-1.8-2.4-2.6 0-.5.1-2.7.1-3.2 0-.6 0-1.3-.1-1.7.2.1.4.1.7.1.3 0 .5 0 .7-.1-.1 1.1-.1 2.4-.1 3.2 0 1.8 0 3.4 1.5 3.4.9-.1 1.4-.6 1.6-1.1M86.6 9.6c.2.1.4.1.7.1.3 0 .5 0 .7-.1 0 .8-.1 1.5-.1 4 0 .7 0 .9.1 3.3-.2-.1-.3-.1-.7-.1-.4 0-.5 0-.7.1.1-1.1.1-2.7.1-3.8 0-1.8 0-2.8-.1-3.5m.8-1.7c-.4 0-.8-.4-.8-.8 0-.5.4-.8.8-.8s.8.4.8.8c-.1.4-.4.8-.8.8M93.7 11.2c-.1-.2-.1-.6-.6-.9-.3-.2-.7-.3-.9-.3-.9 0-1.3.5-1.3 1.1 0 .9.8 1.2 1.3 1.3 1.3.3 2.3.6 2.3 2.1 0 1.1-.7 2.4-2.7 2.4-1.1 0-1.9-.5-2.1-.6.2-.4.3-1 .3-1.2h.2c.1.3.2.7.8 1 .4.2.7.3 1 .3.7 0 1.4-.4 1.4-1.2 0-.9-.5-1-2-1.5-.6-.2-1.6-.7-1.6-2 0-.9.5-2.2 2.4-2.2 1 0 1.5.3 1.9.5-.1.4-.2.8-.3 1.3h-.1z"/><path class="st1" d="M58 17c-.4 0-.8-.4-.8-.8 0-.5.4-.8.8-.8s.8.4.8.8-.4.8-.8.8"/><path class="st0" d="M183.8 14.8c-.1.3-.1.7-.2 1.2-1 .7-2.3 1-3.5 1-3.3 0-5.2-2.3-5.2-5.4 0-2.9 1.7-5.3 5.4-5.3 1.7 0 2.9.5 3.5.8-.2.6-.3.8-.3 1.5h-.1c-.4-.8-1.7-1.6-3.1-1.6-2.2 0-3.7 1.7-3.7 4.7 0 3.1 1.8 4.7 3.8 4.7.6 0 2.1-.2 3.2-1.6h.2zM186.1 13.2c0 2.1.9 3.2 2.2 3.2 1.4 0 2.3-1.2 2.3-3.2 0-1.2-.3-3.2-2.2-3.2-2.3 0-2.3 2.7-2.3 3.2m5.8 0c0 2.4-1.6 3.9-3.7 3.9-1.5 0-3.6-.7-3.6-3.8 0-2.3 1.5-3.8 3.6-3.8 2.7-.1 3.7 1.8 3.7 3.7M193.4 5.7c.2 0 .5.1.7.1.3 0 .5 0 .7-.1-.1 2.2-.1 3-.1 5.6 0 2.4 0 3.4.1 5.5-.2-.1-.4-.1-.8-.1s-.5 0-.7.1c.1-1.5.1-1.9.1-5.8.1-3.4.1-3.8 0-5.3M197.8 5.7c.2 0 .5.1.7.1.3 0 .5 0 .8-.1-.1 2.2-.1 3-.1 5.6 0 2.4 0 3.4.1 5.5-.2-.1-.4-.1-.8-.1s-.5 0-.7.1c.1-1.5.1-1.9.1-5.8-.1-3.4-.1-3.8-.1-5.3M205.8 12.6c0-.5 0-2.5-1.7-2.5-1.2 0-1.8 1-2 2.5h3.7zm-3.6.6c0 .4 0 1.3.4 2 .7 1.1 1.6 1.2 2 1.2 1.4 0 2-.9 2.3-1.2h.2c-.1.4-.1.7-.1.9-.6.6-1.5 1-2.6 1-2.2 0-3.5-1.4-3.5-3.8 0-2.1 1.1-3.8 3.4-3.8 3.2 0 3.1 2.9 3.1 3.7h-5.2zM213 11.7c0-1.3-.8-1.8-1.5-1.8-1.4 0-1.5 1.4-1.5 2 0 1.3.7 1.8 1.5 1.8 1.2 0 1.5-1.1 1.5-2m.9 6.7c0-1.4-1.4-1.6-2.3-1.6-.3 0-2.2 0-2.2 1.7 0 1.1.9 1.8 2.2 1.8 1.5 0 2.3-.9 2.3-1.9m-2.5-9c.3 0 .6 0 1 .1.7.1.9.2 1.5.2.4 0 .6 0 1.3-.1v.8h-1.3c.3.3.6.8.6 1.4 0 1.6-1.2 2.5-2.8 2.5-.2 0-1-.1-1-.1-.4 0-.6.4-.6.7 0 .4.1.8 1.7.8h1c1.2 0 1.6.3 1.9.6.4.3.6.8.6 1.4 0 1.1-.8 3.2-3.7 3.2-2.3 0-3-1.2-3-2.2 0-1.4 1.3-1.9 1.6-2-.9-.3-1-.8-1-1.3 0-1 .9-1.4 1.1-1.5-1-.4-1.4-1.2-1.4-2.1-.3-1.5 1-2.4 2.5-2.4M220.9 12.6c0-.5 0-2.5-1.7-2.5-1.2 0-1.8 1-2 2.5h3.7zm-3.7.6c0 .4 0 1.3.4 2 .6 1.1 1.6 1.2 2 1.2 1.4 0 2-.9 2.3-1.2h.2c-.1.4-.1.7-.1.9-.6.6-1.5 1-2.6 1-2.1 0-3.5-1.4-3.5-3.8 0-2.1 1.1-3.8 3.4-3.8 3.2 0 3.1 2.9 3.1 3.7h-5.2z"/><path class="st2" d="M49.6 25.7v.8c-.6-.1-1.4-.1-1.9-.1h-1v3.7c.8 0 1.8 0 3.2-.2v.8c-.6-.1-1.1-.1-1.7-.1-.9 0-1.9 0-2.8.1.1-1 .1-1.8.1-4.6 0-1.3 0-3.1-.1-4.3.9.1 1.7.1 2.6.1.6 0 1.2 0 1.9-.1v.9c-.5-.1-.9-.2-1.9-.2h-1.2v3.2c.9.1 1.8.1 2.8 0M56 30.8c-.2 0-.5-.1-.7-.1-.3 0-.6.1-.8.1-.5-.9-1-1.7-1.5-2.5-.6.9-1.3 2.1-1.6 2.5-.1 0-.3-.1-.5-.1-.3 0-.4 0-.5.1.7-.8 1.8-2.2 2.3-3-.6-.9-1.7-2.4-2.4-3.3.2 0 .5.1.9.1.3 0 .5 0 .7-.1.3.5.7 1.4 1.5 2.4.3-.5 1-1.5 1.5-2.4.1 0 .2.1.5.1.2 0 .5-.1.6-.1-.2.2-.2.3-.6.7-.8 1.1-.9 1.2-1.7 2.2.6.8 1.7 2.5 2.3 3.4M58.6 25.7c-.2.3-.5.8-.5 2.1 0 1.1.2 1.6.5 1.9.3.4.7.6 1.3.6 1.7 0 1.7-2.2 1.7-2.6 0-2-.9-2.7-1.7-2.7-.6.1-1 .4-1.3.7m1.5 5.3c-1.1 0-1.8-.7-2-1.2 0 2 0 3.2.1 4.4-.2-.1-.3-.1-.6-.1s-.5 0-.7.1c.1-1.7.1-3.4.1-5.1 0-1.2 0-2.8-.1-4.7.2 0 .4.1.6.1.2 0 .4 0 .6-.1v1.2c.2-.3.7-1.2 2.1-1.2 1.2 0 2.7.9 2.7 3.3 0 2-1.2 3.3-2.8 3.3M67.1 27.6c-2.1.3-2.3.9-2.3 1.6 0 .8.6 1.1 1 1.1.6 0 1.3-.5 1.3-1.2v-1.5zm-3-1.5v-.8c.4-.3 1-.8 2-.8.5 0 1.1.1 1.6.6.3.3.5.7.5 1.5v2.3c0 1.1 0 1.5.5 1.5.1 0 .2 0 .3-.1v.4c-.3.1-.5.3-.9.3s-.8-.3-.9-.8c-.4.4-.9.9-1.8.9-1.3 0-1.7-1-1.7-1.7 0-1.4 1-1.6 2-1.9l1.1-.2c.3-.1.5-.3.5-.6 0-.9-.6-1.4-1.4-1.4-1 0-1.3.7-1.4 1h-.4zM70 24.5c.2 0 .4.1.6.1.2 0 .4 0 .6-.1 0 .2 0 1.1-.1 1.2.3-.6 1-1.3 2.1-1.3 2 0 2.1 1.5 2.1 2.3V30.9c-.2-.1-.3-.1-.6-.1s-.5 0-.6.1c.1-1.4.1-2.8.1-3 0-1.3-.1-2.5-1.4-2.5-.6 0-1.2.3-1.5.9-.2.5-.2 1.9-.2 2.5 0 1 .1 1.7.1 2.2-.2 0-.4-.1-.6-.1-.3 0-.5 0-.6.1.1-.8.1-1.6.1-3.6 0-1-.1-2-.1-2.9M80.9 29.7c.2-.3.5-.8.5-2.1 0-.5 0-1.1-.3-1.5-.4-.8-1-1-1.5-1-1.7 0-1.7 2.2-1.7 2.6 0 2 .9 2.7 1.7 2.7.6 0 1.1-.3 1.3-.7m-1.5-5.3c1.1 0 1.8.7 2 1.2v-4.4c.2 0 .3.1.6.1s.5 0 .7-.1c-.1 1.8-.1 3.6-.1 5.5v4.1c-.2 0-.3-.1-.6-.1s-.4 0-.6.1v-1.1c-.4.9-1.2 1.3-2.1 1.3-1.2 0-2.7-1-2.7-3.3 0-2 1.2-3.3 2.8-3.3M84.3 24.5c.2.1.3.1.6.1s.5 0 .6-.1c0 .7-.1 1.3-.1 3.4 0 .6 0 .8.1 2.9-.2-.1-.3-.1-.6-.1s-.5 0-.6.1c0-1 .1-2.3.1-3.3 0-1.5 0-2.3-.1-3m.7-1.4c-.4 0-.7-.3-.7-.7 0-.4.3-.7.7-.7.4 0 .7.3.7.7-.1.4-.4.7-.7.7M87.4 24.5c.2 0 .4.1.6.1s.4 0 .6-.1c0 .2 0 1.1-.1 1.2.3-.6 1-1.3 2.1-1.3 2 0 2.1 1.5 2.1 2.3V30.9c-.2-.1-.3-.1-.6-.1s-.5 0-.6.1c.1-1.4.1-2.8.1-3 0-1.3-.1-2.5-1.4-2.5-.6 0-1.2.3-1.5.9-.2.5-.2 1.9-.2 2.5 0 1 .1 1.7.1 2.2-.2 0-.4-.1-.6-.1s-.5 0-.6.1c.1-.8.1-1.6.1-3.6-.1-1-.1-2-.1-2.9M98.1 26.4c0-1.1-.7-1.6-1.3-1.6-1.2 0-1.3 1.2-1.3 1.7 0 1.1.6 1.6 1.3 1.6 1 0 1.3-1 1.3-1.7m.7 5.8c0-1.2-1.2-1.4-2-1.4-.3 0-1.9 0-1.9 1.5 0 1 .8 1.5 1.9 1.5 1.3 0 2-.8 2-1.6m-2.1-7.8c.3 0 .5 0 .8.1.6.1.8.1 1.3.1.4 0 .5 0 1.1-.1v.6h-1.1c.3.3.5.7.5 1.2 0 1.4-1.1 2.1-2.5 2.1-.1 0-.8-.1-.9-.1-.4 0-.5.3-.5.6 0 .4.1.7 1.4.7h.9c1 0 1.4.3 1.7.5.3.3.5.7.5 1.2 0 .9-.6 2.8-3.2 2.8-2 0-2.6-1.1-2.6-1.9 0-1.2 1.1-1.6 1.3-1.7-.8-.2-.9-.7-.9-1.1 0-.9.8-1.2 1-1.3-.8-.3-1.2-1-1.2-1.8 0-1.1 1-1.9 2.4-1.9M111.6 24.2c-.9 1.7-1.7 3.4-2.5 5.1-.4.8-.5 1.1-.6 1.5h-.2-.2c-.2-.5-.4-.9-.6-1.3-.9-1.8-1.8-3.7-2.6-5.2-.3 1.9-.5 5.4-.5 6.5-.2-.1-.3-.1-.5-.1s-.5.1-.6.1c.1-.6 1-6.2 1.3-9h.4c.4.9 2.7 5.7 3.5 7 2-3.9 2.2-4.3 2.9-5.8.3-.6.4-.7.6-1.2h.4c.3 2.7.7 6.6 1 8.7 0 .1 0 .2.1.4-.3-.1-.5-.1-.7-.1-.4 0-.5 0-.8.1.1-1.5-.4-6.4-.4-6.7M115 24.5c.2.1.3.1.6.1s.5 0 .6-.1c0 .7-.1 1.3-.1 3.4 0 .6 0 .8.1 2.9-.2-.1-.3-.1-.6-.1s-.5 0-.6.1c0-1 .1-2.3.1-3.3 0-1.5 0-2.3-.1-3m.7-1.4c-.4 0-.7-.3-.7-.7 0-.4.3-.7.7-.7.4 0 .7.3.7.7-.1.4-.4.7-.7.7M118.1 24.5c.2 0 .4.1.6.1.2 0 .4 0 .6-.1 0 .2 0 1.1-.1 1.2.3-.6 1-1.3 2.1-1.3 2 0 2.1 1.5 2.1 2.3V30.9c-.2-.1-.3-.1-.6-.1s-.5 0-.6.1c.1-1.4.1-2.8.1-3 0-1.3-.1-2.5-1.4-2.5-.6 0-1.2.3-1.5.9-.2.5-.2 1.9-.2 2.5 0 1 .1 1.7.1 2.2-.2 0-.4-.1-.6-.1s-.5 0-.6.1c.1-.8.1-1.6.1-3.6-.1-1-.1-2-.1-2.9M129 29.7c.2-.3.5-.8.5-2.1 0-.5 0-1.1-.3-1.5-.4-.8-1-1-1.5-1-1.7 0-1.7 2.2-1.7 2.6 0 2 .9 2.7 1.7 2.7.6 0 1.1-.3 1.3-.7m-1.5-5.3c1.1 0 1.8.7 2 1.2v-4.4c.2 0 .3.1.6.1s.5 0 .7-.1c-.1 1.8-.1 3.6-.1 5.5v4.1c-.2 0-.3-.1-.6-.1s-.4 0-.6.1v-1.1c-.4.8-1.2 1.2-2.1 1.2-1.2 0-2.7-1-2.7-3.3 0-1.9 1.2-3.2 2.8-3.2M135.4 26c0-.2-.1-.5-.5-.8-.3-.2-.6-.2-.8-.2-.7 0-1.1.4-1.1 1 0 .8.7 1 1.1 1.1 1.1.3 2 .5 2 1.8 0 1-.6 2.1-2.3 2.1-1 0-1.7-.4-1.8-.5.2-.3.3-.9.3-1h.1c.1.2.2.6.7.9.3.2.6.2.9.2.6 0 1.2-.3 1.2-1.1 0-.7-.4-.9-1.7-1.3-.5-.2-1.4-.6-1.4-1.7 0-.7.4-1.9 2.1-1.9.8 0 1.3.3 1.6.4-.1.3-.2.6-.2 1.1h-.2zM138.7 30.1c0 .5-.3.8-.8.8-.4 0-.8-.4-.8-.8 0-.5.3-.8.8-.8s.8.3.8.8M150.2 29.1c-.1.3-.1.6-.1 1.1-.9.6-2 .8-3 .8-2.8 0-4.5-2-4.5-4.6 0-2.5 1.5-4.6 4.7-4.6 1.5 0 2.5.4 3 .7-.2.5-.2.7-.3 1.3h-.1c-.3-.7-1.4-1.4-2.6-1.4-1.9 0-3.2 1.5-3.2 4 0 2.7 1.6 4 3.3 4 .5 0 1.8-.1 2.8-1.3zM152.6 25.7c.3-.6 1-1.3 2.1-1.3 2 0 2.1 1.5 2.1 2.3v4.1c-.2-.1-.3-.1-.6-.1s-.5 0-.6.1c.1-1.4.1-2.8.1-3.1 0-1.3-.1-2.5-1.4-2.5-.6 0-1 .3-1.2.6-.2.3-.4.6-.4 1.8 0 1.9 0 2.4.1 3.2-.2-.1-.4-.1-.7-.1s-.5 0-.6.1c0-1.1.1-2.3.1-3.4v-2.8c0-1.8 0-2.3-.1-3.4.2 0 .3.1.6.1s.5-.1.7-.1c0 .2-.1 1-.1 1.5v1.8l-.1 1.2zM161.6 27.6c-2.1.3-2.3.9-2.3 1.6 0 .8.6 1.1 1 1.1.6 0 1.3-.5 1.3-1.2v-1.5zm-3.1-1.5v-.8c.4-.3 1-.8 2-.8.5 0 1.1.1 1.6.6.3.3.5.7.5 1.5v2.3c0 1.1 0 1.5.5 1.5.1 0 .2 0 .3-.1v.4c-.3.1-.5.3-.9.3s-.8-.3-.9-.8c-.4.4-.9.9-1.8.9-1.3 0-1.7-1-1.7-1.7 0-1.4 1-1.6 2-1.9l1.1-.2c.3-.1.5-.3.5-.6 0-.9-.6-1.4-1.4-1.4-1 0-1.3.7-1.4 1h-.4zM164.4 24.5c.2 0 .4.1.6.1.2 0 .4 0 .6-.1 0 .2 0 1.1-.1 1.2.3-.6 1-1.3 2.1-1.3 2 0 2.1 1.5 2.1 2.3V30.9c-.2-.1-.3-.1-.6-.1s-.5 0-.6.1c.1-1.4.1-2.8.1-3 0-1.3-.1-2.5-1.4-2.5-.6 0-1.2.3-1.5.9-.2.5-.2 1.9-.2 2.5 0 1 .1 1.7.1 2.2-.2 0-.4-.1-.6-.1s-.5 0-.6.1c.1-.8.1-1.6.1-3.6 0-1 0-2-.1-2.9M175.1 26.4c0-1.1-.7-1.6-1.3-1.6-1.2 0-1.3 1.2-1.3 1.7 0 1.1.6 1.6 1.3 1.6 1.1 0 1.3-1 1.3-1.7m.8 5.8c0-1.2-1.2-1.4-2-1.4-.3 0-1.9 0-1.9 1.5 0 1 .8 1.5 1.9 1.5 1.3 0 2-.8 2-1.6m-2.2-7.8c.3 0 .5 0 .8.1.6.1.8.1 1.3.1.4 0 .5 0 1.1-.1v.6h-1.1c.3.3.5.7.5 1.2 0 1.4-1.1 2.1-2.5 2.1-.1 0-.8-.1-.9-.1-.4 0-.5.3-.5.6 0 .4.1.7 1.4.7h.9c1 0 1.4.3 1.7.5.3.3.5.7.5 1.2 0 .9-.6 2.8-3.2 2.8-2 0-2.6-1.1-2.6-1.9 0-1.2 1.1-1.6 1.3-1.7-.8-.2-.9-.7-.9-1.1 0-.9.8-1.2 1-1.3-.8-.3-1.2-1-1.2-1.8 0-1.1 1.1-1.9 2.4-1.9M178.1 24.5c.2.1.3.1.6.1s.5 0 .6-.1c0 .7-.1 1.3-.1 3.4 0 .6 0 .8.1 2.9-.2-.1-.3-.1-.6-.1s-.5 0-.6.1c0-1 .1-2.3.1-3.3 0-1.5-.1-2.3-.1-3m.6-1.4c-.4 0-.7-.3-.7-.7 0-.4.3-.7.7-.7.4 0 .7.3.7.7 0 .4-.3.7-.7.7M181.2 24.5c.2 0 .4.1.6.1.2 0 .4 0 .6-.1 0 .2 0 1.1-.1 1.2.3-.6 1-1.3 2.1-1.3 2 0 2.1 1.5 2.1 2.3V30.9c-.2-.1-.3-.1-.6-.1s-.5 0-.6.1c.1-1.4.1-2.8.1-3 0-1.3-.1-2.5-1.4-2.5-.6 0-1.2.3-1.5.9-.2.5-.2 1.9-.2 2.5 0 1 .1 1.7.1 2.2-.2 0-.4-.1-.6-.1s-.5 0-.6.1c.1-.8.1-1.6.1-3.6-.1-1-.1-2-.1-2.9M191.9 26.4c0-1.1-.7-1.6-1.3-1.6-1.2 0-1.3 1.2-1.3 1.7 0 1.1.6 1.6 1.3 1.6 1 0 1.3-1 1.3-1.7m.7 5.8c0-1.2-1.2-1.4-2-1.4-.3 0-1.9 0-1.9 1.5 0 1 .8 1.5 1.9 1.5 1.3 0 2-.8 2-1.6m-2.2-7.8c.3 0 .5 0 .8.1.6.1.8.1 1.3.1.4 0 .5 0 1.1-.1v.6h-1.1c.3.3.5.7.5 1.2 0 1.4-1.1 2.1-2.5 2.1-.1 0-.8-.1-.9-.1-.4 0-.5.3-.5.6 0 .4.1.7 1.4.7h.9c1 0 1.4.3 1.7.5.3.3.5.7.5 1.2 0 .9-.6 2.8-3.2 2.8-2 0-2.6-1.1-2.6-1.9 0-1.2 1.1-1.6 1.3-1.7-.8-.2-.9-.7-.9-1.1 0-.9.8-1.2 1-1.3-.8-.3-1.2-1-1.2-1.8.1-1.1 1.1-1.9 2.4-1.9M200.1 30.1c.6 0 1.6-.1 2.2-.2v.8c-.8 0-1.3-.1-2.6-.1-1.1 0-1.4 0-2 .1.1-1.7.1-3 .1-4.7 0-1.8-.1-3.7-.1-4.2.2 0 .4.1.7.1.3 0 .6 0 .8-.1-.1 3.3-.1 4.2-.1 8.2.4.1.7.1 1 .1M203.4 24.5c.2.1.3.1.6.1s.5 0 .6-.1c0 .7-.1 1.3-.1 3.4 0 .6 0 .8.1 2.9-.2-.1-.3-.1-.6-.1s-.5 0-.6.1c0-1 .1-2.3.1-3.3 0-1.5-.1-2.3-.1-3m.6-1.4c-.4 0-.7-.3-.7-.7 0-.4.3-.7.7-.7.4 0 .7.3.7.7 0 .4-.3.7-.7.7M208.6 29.4s.1 0 0 0l.2-.3c.2-.5 1.2-3.3 1.5-4.6.2 0 .3.1.5.1.3 0 .4-.1.6-.1-.7 1.6-2 4.3-2.6 6.3-.1 0-.2-.1-.5-.1s-.4 0-.5.1c-.7-2.2-1.5-4.3-2.5-6.3.2.1.4.1.7.1.4 0 .6 0 .8-.1.5 1.5 1.2 3.6 1.6 4.6l.2.3zM216.2 27.1c0-.4 0-2.2-1.5-2.2-1.1 0-1.6.9-1.7 2.2h3.2zm-3.2.6c0 .4 0 1.1.3 1.7.6 1 1.4 1 1.7 1 1.2 0 1.8-.8 1.9-1.1h.1c-.1.4-.1.6-.1.8-.5.5-1.3.8-2.3.8-1.9 0-3-1.2-3-3.2 0-1.8.9-3.3 2.9-3.3 2.7 0 2.7 2.5 2.7 3.2H213zM221.7 26c0-.2-.1-.5-.5-.8-.3-.2-.6-.2-.8-.2-.7 0-1.1.4-1.1 1 0 .8.7 1 1.1 1.1 1.1.3 2 .5 2 1.8 0 1-.6 2.1-2.3 2.1-1 0-1.7-.4-1.8-.5.2-.3.3-.9.3-1h.1c.1.2.2.6.7.9.3.2.6.2.9.2.6 0 1.2-.3 1.2-1.1 0-.7-.4-.9-1.7-1.3-.5-.2-1.4-.6-1.4-1.7 0-.7.4-1.9 2.1-1.9.8 0 1.3.3 1.6.4-.1.3-.2.6-.2 1.1h-.2zM225.1 30.1c0 .5-.3.8-.8.8-.4 0-.8-.4-.8-.8 0-.5.3-.8.8-.8.4 0 .8.3.8.8"/></svg>