<?xml version="1.0" encoding="UTF-8" standalone="no"?>
<!-- Created with Inkscape (http://www.inkscape.org/) -->

<svg
   width="3840mm"
   height="2160mm"
   viewBox="0 0 3840 2160"
   version="1.1"
   id="svg1"
   inkscape:export-filename="stlcc-background.svg"
   inkscape:export-xdpi="96"
   inkscape:export-ydpi="96"
   xmlns:inkscape="http://www.inkscape.org/namespaces/inkscape"
   xmlns:sodipodi="http://sodipodi.sourceforge.net/DTD/sodipodi-0.dtd"
   xmlns="http://www.w3.org/2000/svg"
   xmlns:svg="http://www.w3.org/2000/svg">
  <sodipodi:namedview
     id="namedview1"
     pagecolor="#505050"
     bordercolor="#ffffff"
     borderopacity="1"
     inkscape:showpageshadow="0"
     inkscape:pageopacity="0"
     inkscape:pagecheckerboard="1"
     inkscape:deskcolor="#505050"
     inkscape:document-units="mm"
     inkscape:clip-to-page="false"
     showgrid="true">
    <inkscape:grid
       visible="true"
       id="grid1"
       units="mm"
       originx="0"
       originy="0"
       spacingx="1"
       spacingy="1"
       empcolor="#0099e5"
       empopacity="0.30196078"
       color="#0099e5"
       opacity="0.14901961"
       empspacing="5"
       dotted="false"
       gridanglex="30"
       gridanglez="30" />
  </sodipodi:namedview>
  <defs
     id="defs1" />
  <g
     inkscape:label="Layer 1"
     inkscape:groupmode="layer"
     id="layer1">
    <path
       d="M -0.25710867,-0.25710928 V 1478.6702 l 1914.30110867,0.01 c 5.941,-0.01 11.6434,-0.4161 17.1239,-1.1804 5.4803,-0.7677 10.7524,-1.897 15.8459,-3.3333 10.1868,-2.8726 19.6731,-6.989 28.7527,-12.0061 9.0795,-5.0169 17.7462,-10.9334 26.3063,-17.3834 8.5604,-6.4503 17.0021,-13.439 25.631,-20.6094 l 176.4779,-162.9387 c 9.0701,-7.6185 17.9115,-15.1637 26.8723,-22.1965 8.9608,-7.0324 18.0438,-13.54 27.5661,-19.111 4.7615,-2.7874 9.6319,-5.3426 14.6593,-7.5988 5.0277,-2.2552 10.2126,-4.2183 15.5906,-5.8354 5.3777,-1.6171 10.947,-2.8861 16.7586,-3.7552 5.812,-0.8699 11.8529,-1.3476 18.1829,-1.3578 H 3840.2571 V -0.25246908 Z"
       style="fill:#002453;stroke:#002453;stroke-width:2.6454;stroke-opacity:0.00124404"
       id="path1"
       sodipodi:nodetypes="ccccsssccsccsccccc"
       inkscape:label="path1" />
  </g>
</svg>
